<svg id="Layer_1" data-name="Layer 1" xmlns="http://www.w3.org/2000/svg" viewBox="0 0 55.819 57.494"><defs><style>.cls-1{stroke:#000;stroke-miterlimit:10;stroke-width:0.5px;}</style></defs><title>Icon</title><path class="cls-1" d="M25.3,22.35a.6.6,0,0,0,.467.706h.12a.6.6,0,0,0,.6-.485l.844-4.208v-.216a.051.051,0,0,0,0-.03v-.1a.411.411,0,0,0-.048-.09h-.67l-4.233.845a.61.61,0,1,0,.24,1.2l2.317-.76-6.251,6.22-2.131-2.119a.6.6,0,0,0-.844,0L8.526,30.5a.6.6,0,0,0,.851.85l6.771-6.765,2.119,2.12a.6.6,0,0,0,.844,0l6.646-6.646Z"/><path class="cls-1" d="M16.542,31.935h-2.4a.6.6,0,0,0-.6.6v5.337a.6.6,0,1,0,1.2,0V33.133h1.2v4.738a.6.6,0,1,0,1.2,0V32.534A.6.6,0,0,0,16.542,31.935Z"/><path class="cls-1" d="M11.366,34.422H8.972a.6.6,0,0,0-.6.6v2.892a.6.6,0,1,0,1.2,0V35.619h1.2v2.293a.6.6,0,1,0,1.2,0V35.02A.6.6,0,0,0,11.366,34.422Z"/><path class="cls-1" d="M21.93,29.54H19.536a.6.6,0,0,0-.6.6v7.732a.6.6,0,1,0,1.2,0V30.738h1.2v7.133a.6.6,0,1,0,1.2,0V30.139A.6.6,0,0,0,21.93,29.54Z"/><path class="cls-1" d="M27.319,26.547H24.924a.574.574,0,0,0-.6.544V37.926a.6.6,0,0,0,1.2,0V27.635h1.2V37.926a.6.6,0,0,0,1.2,0V27.091A.573.573,0,0,0,27.319,26.547Z"/><path d="M10.307,18.311a.918.918,0,0,1,.918.918.459.459,0,0,0,.918,0,1.837,1.837,0,0,0-1.377-1.776v-.977a.459.459,0,0,0-.918,0v.977a1.835,1.835,0,0,0,.459,3.611.918.918,0,1,1-.917.918.459.459,0,0,0-.918,0,1.838,1.838,0,0,0,1.376,1.776v.977a.459.459,0,0,0,.918,0v-.977a1.835,1.835,0,0,0-.459-3.611.918.918,0,0,1,0-1.836Z"/><path d="M10.307,25.345a.61.61,0,0,1-.61-.61v-.864A1.989,1.989,0,0,1,8.32,21.982a.611.611,0,0,1,1.221,0,.766.766,0,1,0,.766-.766A1.987,1.987,0,0,1,9.7,17.34v-.864a.61.61,0,0,1,1.22,0v.864a1.985,1.985,0,0,1,1.377,1.889.611.611,0,0,1-1.221,0,.766.766,0,1,0-.766.766,1.987,1.987,0,0,1,.61,3.876v.864A.61.61,0,0,1,10.307,25.345Zm-1.376-3.67a.307.307,0,0,0-.308.307,1.685,1.685,0,0,0,1.263,1.629l.114.03v1.094a.308.308,0,1,0,.615,0V23.641l.113-.03a1.684,1.684,0,0,0-.421-3.313,1.069,1.069,0,1,1,1.069-1.069.308.308,0,1,0,.615,0A1.682,1.682,0,0,0,10.728,17.6l-.113-.03V16.476a.308.308,0,0,0-.615,0V17.57l-.114.03a1.684,1.684,0,0,0,.421,3.313,1.069,1.069,0,1,1-1.069,1.069A.307.307,0,0,0,8.931,21.675Z"/><path class="cls-1" d="M46.069,19.671h-12a.75.75,0,0,1,0-1.5h12a.75.75,0,0,1,0,1.5Z"/><path class="cls-1" d="M46.069,23.712h-12a.75.75,0,0,1,0-1.5h12a.75.75,0,0,1,0,1.5Z"/><path class="cls-1" d="M46.069,27.449h-12a.75.75,0,0,1,0-1.5h12a.75.75,0,0,1,0,1.5Z"/><path class="cls-1" d="M46.069,31.186h-12a.75.75,0,0,1,0-1.5h12a.75.75,0,0,1,0,1.5Z"/><path class="cls-1" d="M46.069,34.924h-12a.75.75,0,0,1,0-1.5h12a.75.75,0,0,1,0,1.5Z"/><path class="cls-1" d="M52.984,40.4h-.727V34.774a.834.834,0,1,0-1.667,0V40.4H5.229V13.288H9.918a.834.834,0,1,0,0-1.668H2.835a.917.917,0,0,1,0-1.834H52.984a.917.917,0,1,1,0,1.834H13.927a.834.834,0,0,0,0,1.668H50.59V30.661a.834.834,0,0,0,1.667,0V13.288h.727a2.585,2.585,0,1,0,0-5.17H32.073L29.715,4.034a2.325,2.325,0,1,0-3.611,0L23.746,8.118H2.835a2.585,2.585,0,0,0,0,5.17h.727V40.4H2.835a2.585,2.585,0,1,0,0,5.169H21.579l-5.441,9.424a1.5,1.5,0,0,0,1.3,2.251h1.99a2.062,2.062,0,0,0,1.781-1.029l4.236-7.338A.834.834,0,0,0,24,48.044l-4.236,7.338a.391.391,0,0,1-.337.194h-1.7l5.778-10.007h4.959L34.61,56.215a2.062,2.062,0,0,0,1.781,1.029h1.99a1.5,1.5,0,0,0,1.3-2.252L34.24,45.569H52.984a2.585,2.585,0,1,0,0-5.169ZM27.909,1.918a.656.656,0,1,1-.656.656A.657.657,0,0,1,27.909,1.918Zm-.361,2.949a2.117,2.117,0,0,0,.722,0l1.878,3.251H25.671ZM38.092,55.576h-1.7a.392.392,0,0,1-.337-.2l-5.665-9.812h1.925ZM52.984,43.9H2.835a.917.917,0,1,1,0-1.834H52.984a.917.917,0,0,1,0,1.834Z"/></svg>