<?xml version="1.0" ?><svg id="Layer_1_1_" style="enable-background:new 0 0 64 64;" version="1.1" viewBox="0 0 64 64" xml:space="preserve" xmlns="http://www.w3.org/2000/svg" xmlns:xlink="http://www.w3.org/1999/xlink"><g><path d="M58,17h-1V1H7v16H6c-2.757,0-5,2.243-5,5v30c0,2.757,2.243,5,5,5h13v4h-4v2h34v-2h-4v-4h13c2.757,0,5-2.243,5-5V22   C63,19.243,60.757,17,58,17z M34.275,41l-0.73-1.461L36,38.721V37c3.86,0,7-3.141,7-7V18.487l3.152,5.043l1.696-1.061L42,13.113   l-5.848,9.356l1.696,1.061L41,18.487V30c0,2.757-2.243,5-5,5v-1.721l-2.456-0.818l1.158-2.315l-3.848-3.848l-2.314,1.157L27.721,25   h-5.441l-0.819,2.455l-2.314-1.157l-3.848,3.848l1.158,2.315L14,33.279v5.441l2.456,0.818L15.725,41H9V11h46v30H34.275z    M32.269,41.46l-1.809,1.809l-2.162-1.081l-0.433,0.194c-0.125,0.056-0.251,0.105-0.379,0.155l-0.441,0.169L26.279,45h-2.559   l-0.765-2.294l-0.441-0.169c-0.128-0.05-0.255-0.1-0.379-0.155l-0.433-0.194l-2.162,1.081l-1.809-1.809l1.081-2.162l-0.194-0.433   c-0.055-0.123-0.105-0.248-0.153-0.375l-0.168-0.445L16,37.279v-2.559l2.298-0.766l0.168-0.445   c0.048-0.127,0.098-0.252,0.153-0.375l0.194-0.433l-1.081-2.162l1.809-1.809l2.162,1.081l0.433-0.194   c0.125-0.056,0.251-0.105,0.379-0.155l0.441-0.169L23.721,27h2.559l0.765,2.294l0.441,0.169c0.128,0.05,0.255,0.1,0.379,0.155   l0.433,0.194l2.162-1.081l1.809,1.809l-1.081,2.162l0.194,0.433c0.055,0.123,0.105,0.248,0.153,0.375l0.168,0.445L34,34.721v2.559   l-2.298,0.766l-0.168,0.445c-0.048,0.127-0.098,0.252-0.153,0.375l-0.194,0.433L32.269,41.46z M55,3v6H9V3H55z M6,19h1v24h9.443   l2.703,2.702l2.314-1.157L22.279,47h5.441l0.819-2.455l2.314,1.157L33.557,43H57V19h1c1.654,0,3,1.346,3,3v27H3V22   C3,20.346,4.346,19,6,19z M43,61H21v-4h22V61z M58,55H6c-1.654,0-3-1.346-3-3v-1h58v1C61,53.654,59.654,55,58,55z"/><rect height="2" width="2" x="11" y="5"/><rect height="2" width="2" x="15" y="5"/><rect height="2" width="2" x="19" y="5"/><path d="M25,31c-2.757,0-5,2.243-5,5s2.243,5,5,5s5-2.243,5-5S27.757,31,25,31z M25,39c-1.654,0-3-1.346-3-3s1.346-3,3-3   s3,1.346,3,3S26.654,39,25,39z"/><polygon points="17.293,13.293 15,15.586 12.707,13.293 11.293,14.707 13.586,17 11.293,19.293 12.707,20.707 15,18.414    17.293,20.707 18.707,19.293 16.414,17 18.707,14.707  "/><path d="M32,13c-2.206,0-4,1.794-4,4s1.794,4,4,4s4-1.794,4-4S34.206,13,32,13z M32,19c-1.103,0-2-0.897-2-2s0.897-2,2-2   s2,0.897,2,2S33.103,19,32,19z"/><path d="M49,31c-2.206,0-4,1.794-4,4s1.794,4,4,4s4-1.794,4-4S51.206,31,49,31z M49,37c-1.103,0-2-0.897-2-2s0.897-2,2-2   s2,0.897,2,2S50.103,37,49,37z"/></g></svg>