<?xml version="1.0" ?><!DOCTYPE svg  PUBLIC '-//W3C//DTD SVG 1.1//EN'  'http://www.w3.org/Graphics/SVG/1.1/DTD/svg11.dtd'><svg height="512px" style="enable-background:new 0 0 512 512;" version="1.1" viewBox="0 0 512 512" width="512px" xml:space="preserve" xmlns="http://www.w3.org/2000/svg" xmlns:xlink="http://www.w3.org/1999/xlink"><g id="_x35_83_x2C__Web_x2C__Design_x2C__Text"><g><g><path d="M486,496H26c-5.523,0-10-4.478-10-10V26c0-5.523,4.477-10,10-10h460c5.522,0,10,4.477,10,10v460     C496,491.522,491.522,496,486,496z M36,476h440V36H36V476z"/></g><g><path d="M486,116H26c-5.523,0-10-4.477-10-10V26c0-5.523,4.477-10,10-10h460c5.522,0,10,4.477,10,10v80     C496,111.523,491.522,116,486,116z M36,96h440V36H36V96z"/></g><rect height="20" width="20" x="396" y="56"/><rect height="20" width="20" x="356" y="56"/><rect height="20" width="20" x="436" y="56"/><g><path d="M136,296H66c-5.523,0-10-4.478-10-10s4.477-10,10-10h70c5.523,0,10,4.478,10,10S141.523,296,136,296z"/></g><g><path d="M276,296H176c-5.523,0-10-4.478-10-10s4.477-10,10-10h100c5.522,0,10,4.478,10,10S281.522,296,276,296z"/></g><g><path d="M286,336H136c-5.523,0-10-4.478-10-10s4.477-10,10-10h150c5.522,0,10,4.478,10,10S291.522,336,286,336z"/></g><g><path d="M96,336H66c-5.523,0-10-4.478-10-10s4.477-10,10-10h30c5.523,0,10,4.478,10,10S101.523,336,96,336z"/></g><g><path d="M296,376h-80c-5.523,0-10-4.478-10-10s4.477-10,10-10h80c5.522,0,10,4.478,10,10S301.522,376,296,376z"/></g><g><path d="M176,376H66c-5.523,0-10-4.478-10-10s4.477-10,10-10h110c5.523,0,10,4.478,10,10S181.523,376,176,376z"/></g><g><path d="M206,256H66c-5.523,0-10-4.477-10-10s4.477-10,10-10h140c5.523,0,10,4.477,10,10S211.523,256,206,256z"/></g><g><path d="M266,256h-20c-5.523,0-10-4.477-10-10s4.477-10,10-10h20c5.522,0,10,4.477,10,10S271.522,256,266,256z"/></g><g><path d="M326,456H206c-5.523,0-10-4.478-10-10s4.477-10,10-10h120c5.522,0,10,4.478,10,10S331.522,456,326,456z"/></g><g><path d="M166,456H66c-5.523,0-10-4.478-10-10s4.477-10,10-10h100c5.523,0,10,4.478,10,10S171.523,456,166,456z"/></g><g><path d="M316,416h-40c-5.522,0-10-4.478-10-10s4.478-10,10-10h40c5.522,0,10,4.478,10,10S321.522,416,316,416z"/></g><g><path d="M236,416H66c-5.523,0-10-4.478-10-10s4.477-10,10-10h170c5.523,0,10,4.478,10,10S241.523,416,236,416z"/></g><g><path d="M446,216H66c-5.523,0-10-4.477-10-10v-60c0-5.523,4.477-10,10-10h380c5.522,0,10,4.477,10,10v60     C456,211.523,451.522,216,446,216z M76,196h360v-40H76V196z"/></g><g><path d="M346.009,336.001c-3.231,0-6.402-1.563-8.329-4.454l-20-30c-2.239-3.358-2.239-7.735,0-11.094l20-30     c3.063-4.597,9.271-5.836,13.867-2.773c4.596,3.063,5.837,9.272,2.773,13.867L338.019,296l16.302,24.453     c3.063,4.595,1.822,10.804-2.773,13.867C349.842,335.457,347.915,336.001,346.009,336.001z"/></g><g><path d="M425.991,336.001c-1.906,0-3.833-0.544-5.538-1.681c-4.596-3.063-5.837-9.272-2.773-13.867L433.981,296l-16.302-24.453     c-3.063-4.595-1.822-10.804,2.773-13.867c4.596-3.064,10.804-1.822,13.867,2.773l20,30c2.239,3.358,2.239,7.735,0,11.094l-20,30     C432.394,334.438,429.222,336.001,425.991,336.001z"/></g><g><path d="M365.997,356.003c-1.236,0-2.493-0.23-3.711-0.718c-5.128-2.052-7.622-7.871-5.571-12.999l40-100     c2.052-5.128,7.872-7.622,12.999-5.571c5.128,2.051,7.622,7.871,5.571,12.999l-40,100     C373.721,353.624,369.965,356.003,365.997,356.003z"/></g></g></g><g id="Layer_1"/></svg>