<svg id="Layer_1" data-name="Layer 1" xmlns="http://www.w3.org/2000/svg" viewBox="0 0 63.989 62"><title>Icon</title><path d="M11.848,38.6c0,.171-.012.339-.03.509.037-.349,0-.046-.008.022-.016.09-.036.178-.055.266-.041.181-.094.358-.15.535-.029.089-.062.178-.094.266-.023.059-.046.118-.07.177.063-.148.066-.158.01-.032a6.531,6.531,0,0,1-.563.994c-.029.043-.221.3-.031.054-.057.073-.117.144-.177.214a5.007,5.007,0,0,1-.447.451c-.046.041-.284.226-.025.03-.069.052-.141.1-.214.147s-.145.088-.219.129-.326.152-.009.019a2.815,2.815,0,0,1-.471.143c-.281.062.291-.025,0,0a2.258,2.258,0,0,1-.329,0c-.289-.015.286.053,0,0a2.442,2.442,0,0,1-.238-.061c-.079-.023-.156-.053-.233-.082.317.123.056.015-.008-.019a3.488,3.488,0,0,1-.433-.276c.261.189.022.011-.025-.03-.091-.078-.177-.163-.261-.249a5.337,5.337,0,0,1-.364-.416c.194.241,0-.01-.03-.054-.055-.078-.106-.158-.157-.238-.1-.161-.194-.329-.282-.5-.044-.085-.084-.171-.125-.258-.056-.126-.053-.116.01.031-.024-.058-.047-.117-.069-.176a6.262,6.262,0,0,1-.3-1.067c-.013-.067-.051-.372-.008-.022-.01-.086-.016-.172-.022-.258a4.171,4.171,0,0,1,.011-.642c-.027.321,0,.008.013-.054.017-.093.041-.185.065-.277s.054-.18.085-.269c.1-.3-.113.236.017-.051a3.886,3.886,0,0,1,.269-.485c.029-.046.214-.3.022-.05.075-.1.158-.187.241-.277a3.859,3.859,0,0,1,.407-.37c-.242.2,0,.009.05-.023.076-.051.157-.1.237-.142s.164-.086.248-.127c.284-.136-.246.093.051-.017a3.911,3.911,0,0,1,.64-.167c.14-.022.126-.021-.041.005.065-.006.13-.011.195-.014.131-.008.262-.005.393,0,.065,0,.13.008.2.014-.167-.026-.18-.027-.041-.005s.249.051.371.083a3.722,3.722,0,0,1,.357.117c-.3-.113.07.036.13.067.11.056.215.12.319.186.051.034.1.068.152.1-.253-.177-.006,0,.039.036a3.962,3.962,0,0,1,.506.53c-.2-.251.037.074.072.128.066.1.123.214.179.323.028.056.054.112.079.169q-.1-.227-.021-.033c.043.117.076.239.108.36s.054.249.074.374c-.053-.333,0,.174,0,.256a1.229,1.229,0,1,0,2.458,0,5.169,5.169,0,0,0-8.092-4.265A5.212,5.212,0,0,0,3.991,39.1,7.436,7.436,0,0,0,6.3,43.79a4.429,4.429,0,0,0,2.754,1.193A4.24,4.24,0,0,0,11.9,43.848a7.225,7.225,0,0,0,2.4-5.252,1.229,1.229,0,0,0-2.458,0Z"/><path d="M15.809,50.613v3.154l1.229-1.229H1.229l1.229,1.229V50.631c0-.072,0-.143,0-.214s.007-.13.014-.194c.027-.326-.047.266.01-.053.022-.124.055-.246.089-.367.021-.075.2-.533.07-.231a3.779,3.779,0,0,1,.213-.409c.038-.065.321-.46.12-.2a4.046,4.046,0,0,1,.575-.588q.158-.127-.032.024c.074-.055.151-.105.228-.154a4.154,4.154,0,0,1,.4-.222c.125-.057.112-.053-.038.012.057-.022.116-.044.174-.064a3.953,3.953,0,0,1,.453-.127c.062-.013.125-.025.187-.036-.321.058-.007,0,.055,0,.106-.009.212-.011.318-.011h.922l-.869-.36,2.922,3.286a1.229,1.229,0,0,0,1.738,0l2.9-3.286-.869.36h.94c.132,0,.264.008.4.019s.128.013-.041-.006c.094.014.187.035.279.057a4.144,4.144,0,0,1,.449.136c.3.106-.237-.112.048.021.084.039.165.083.245.128a3.783,3.783,0,0,1,.386.248c-.262-.186.115.1.173.159a4.109,4.109,0,0,1,.312.334c.2.236-.15-.211.03.043.053.075.1.153.149.232a4.063,4.063,0,0,1,.213.409c-.138-.3.046.153.069.23a4.049,4.049,0,0,1,.106.461c-.058-.321,0-.007,0,.056.008.1.009.2.01.293a1.229,1.229,0,1,0,2.458,0,5.39,5.39,0,0,0-2.509-4.494,5.328,5.328,0,0,0-2.572-.779,4.856,4.856,0,0,0-1.47.039,2.041,2.041,0,0,0-.944.772l-1,1.134-1.5,1.7h1.738l-1.6-1.8L7.4,46.043a1.541,1.541,0,0,0-1.231-.708,11.542,11.542,0,0,0-1.8.085,5.391,5.391,0,0,0-2.483,1.156A5.285,5.285,0,0,0,0,50.734v3.033A1.24,1.24,0,0,0,1.229,55H17.038a1.24,1.24,0,0,0,1.229-1.229V50.613a1.229,1.229,0,1,0-2.458,0Z"/><path d="M57.57,38.6c0,.171-.012.339-.03.509.037-.349,0-.046-.008.022-.016.09-.036.178-.056.266-.04.181-.093.358-.15.535-.029.089-.061.178-.094.266q-.033.088-.069.177c.063-.148.066-.158.01-.032a6.617,6.617,0,0,1-.563.994c-.03.043-.221.3-.031.054-.057.073-.117.144-.178.214a4.878,4.878,0,0,1-.447.451c-.045.041-.284.226-.024.03-.069.052-.142.1-.214.147s-.145.088-.22.129-.325.152-.008.019a2.873,2.873,0,0,1-.471.143c-.282.062.291-.025,0,0a2.258,2.258,0,0,1-.329,0c-.289-.015.286.053,0,0a2.37,2.37,0,0,1-.238-.061c-.079-.023-.156-.053-.233-.082.317.123.055.015-.008-.019a3.5,3.5,0,0,1-.434-.276c.262.189.023.011-.025-.03-.09-.078-.176-.163-.26-.249a5.135,5.135,0,0,1-.364-.416c.193.241,0-.01-.031-.054-.054-.078-.1-.158-.156-.238-.1-.161-.194-.329-.282-.5-.044-.085-.085-.171-.125-.258-.056-.126-.053-.116.01.031-.024-.058-.047-.117-.069-.176a6.262,6.262,0,0,1-.3-1.067c-.013-.067-.051-.372-.008-.022-.011-.086-.016-.172-.022-.258a4.171,4.171,0,0,1,.011-.642c-.027.321,0,.008.013-.054.017-.093.041-.185.065-.277s.054-.18.085-.269c.1-.3-.113.236.017-.051a3.886,3.886,0,0,1,.269-.485c.029-.046.214-.3.022-.05.075-.1.158-.187.241-.277a3.859,3.859,0,0,1,.407-.37c-.242.2,0,.009.05-.023.076-.051.157-.1.237-.142s.164-.086.247-.127c.285-.136-.245.093.052-.017a3.911,3.911,0,0,1,.64-.167c.139-.022.126-.021-.041.005.065-.006.13-.011.2-.014.131-.008.262-.005.393,0,.065,0,.13.008.2.014-.167-.026-.18-.027-.041-.005s.249.051.371.083a3.722,3.722,0,0,1,.357.117c-.3-.113.069.036.13.067.11.056.215.12.318.186.052.034.1.068.152.1-.252-.177-.006,0,.04.036a4.026,4.026,0,0,1,.506.53c-.2-.251.037.074.072.128.066.1.123.214.179.323.028.056.054.112.078.169q-.095-.227-.021-.033a3.732,3.732,0,0,1,.109.36c.032.123.054.249.074.374-.054-.333,0,.174,0,.256a1.229,1.229,0,0,0,2.458,0,5.17,5.17,0,1,0-10.315.509,7.44,7.44,0,0,0,2.3,4.685,4.434,4.434,0,0,0,2.755,1.193,4.236,4.236,0,0,0,2.852-1.135,7.222,7.222,0,0,0,2.4-5.252,1.229,1.229,0,0,0-2.458,0Z"/><path d="M61.531,50.613v3.154l1.229-1.229H46.951l1.229,1.229V50.631c0-.072,0-.143,0-.214s.008-.13.014-.194c.027-.326-.047.266.011-.053.022-.124.055-.246.089-.367.021-.075.2-.533.069-.231a4.173,4.173,0,0,1,.213-.409c.038-.065.321-.46.121-.2a4.046,4.046,0,0,1,.575-.588q.157-.127-.033.024c.074-.055.151-.105.229-.154a4.04,4.04,0,0,1,.4-.222q.188-.086-.039.012c.058-.022.116-.044.175-.064a3.953,3.953,0,0,1,.453-.127c.062-.013.124-.025.187-.036-.321.058-.007,0,.055,0,.106-.009.212-.011.318-.011h.922l-.869-.36Q52.537,49.077,54,50.719a1.229,1.229,0,0,0,1.738,0l2.9-3.286-.869.36h.94c.132,0,.264.008.4.019s.128.013-.041-.006c.094.014.186.035.279.057a4.127,4.127,0,0,1,.448.136c.3.106-.236-.112.049.021.083.039.164.083.245.128a4.016,4.016,0,0,1,.386.248c-.263-.186.115.1.173.159a4.109,4.109,0,0,1,.312.334c.2.236-.151-.211.029.043.054.075.1.153.149.232a3.689,3.689,0,0,1,.213.409c-.137-.3.047.153.07.23a4.049,4.049,0,0,1,.106.461c-.058-.321,0-.007,0,.056.009.1.01.2.011.293a1.229,1.229,0,0,0,2.458,0,5.39,5.39,0,0,0-2.509-4.494,5.335,5.335,0,0,0-2.573-.779,4.849,4.849,0,0,0-1.469.039,2.031,2.031,0,0,0-.944.772l-1,1.134q-.747.848-1.5,1.7h1.739l-1.6-1.8-1.011-1.138a1.542,1.542,0,0,0-1.232-.708,11.535,11.535,0,0,0-1.8.085,5.4,5.4,0,0,0-2.484,1.156,5.287,5.287,0,0,0-1.886,4.158v3.033A1.24,1.24,0,0,0,46.951,55H62.76a1.24,1.24,0,0,0,1.229-1.229V50.613a1.229,1.229,0,0,0-2.458,0Z"/><path d="M34.709,5.165c0,.171-.012.339-.03.509.037-.349,0-.046-.008.023-.016.089-.036.177-.055.265-.041.181-.094.359-.151.535-.028.089-.061.178-.094.266q-.033.088-.069.177c.063-.148.066-.158.01-.032a6.531,6.531,0,0,1-.563.994c-.029.043-.221.3-.031.054-.057.073-.117.144-.178.214a4.869,4.869,0,0,1-.446.451c-.046.041-.284.227-.025.03-.069.052-.141.1-.214.147s-.145.088-.219.129-.326.152-.009.019a2.815,2.815,0,0,1-.471.143c-.281.062.291-.025,0,0a2.258,2.258,0,0,1-.329,0c-.289-.015.286.053,0,0a2.442,2.442,0,0,1-.238-.061c-.079-.023-.156-.053-.233-.082.317.123.056.015-.008-.019a3.488,3.488,0,0,1-.433-.276c.261.189.022.011-.025-.03-.091-.078-.176-.163-.261-.249a5.337,5.337,0,0,1-.364-.416c.194.241,0-.01-.03-.054-.055-.077-.106-.158-.157-.238-.1-.161-.194-.328-.282-.5-.044-.085-.084-.171-.125-.258-.056-.126-.052-.116.01.032q-.036-.089-.069-.177a6.262,6.262,0,0,1-.3-1.067c-.012-.067-.051-.372-.008-.022-.01-.086-.016-.172-.022-.257a4.182,4.182,0,0,1,.011-.643c-.027.321,0,.008.013-.053.017-.094.041-.186.065-.277s.054-.18.085-.269c.1-.3-.113.235.017-.052a3.886,3.886,0,0,1,.269-.485c.029-.046.214-.3.022-.05.075-.1.158-.187.241-.277a3.961,3.961,0,0,1,.407-.37c-.242.2,0,.009.05-.023.077-.051.157-.1.237-.142s.164-.086.248-.126c.284-.137-.246.092.051-.018a3.911,3.911,0,0,1,.64-.167c.14-.022.126-.021-.04.005.064-.006.129-.011.194-.014.131-.008.262,0,.394,0,.064,0,.129.008.194.014-.167-.025-.18-.027-.041-.005s.249.051.371.083a3.632,3.632,0,0,1,.357.117c-.3-.113.07.036.13.067.11.056.215.121.319.186l.152.1c-.253-.177-.006,0,.039.036a3.962,3.962,0,0,1,.506.53c-.2-.251.038.074.072.128.066.1.123.214.179.324.028.055.054.111.079.168q-.1-.226-.021-.033c.043.118.076.239.108.36s.054.249.074.374c-.053-.333,0,.174,0,.256a1.229,1.229,0,0,0,2.458,0,5.17,5.17,0,1,0-10.315.509,7.44,7.44,0,0,0,2.3,4.685,4.434,4.434,0,0,0,2.755,1.193,4.24,4.24,0,0,0,2.853-1.135,7.225,7.225,0,0,0,2.4-5.252,1.229,1.229,0,1,0-2.458,0Z"/><path d="M38.67,17.182v3.154L39.9,19.107H24.09l1.229,1.229V17.2c0-.071,0-.143.005-.214s.007-.129.013-.194c.028-.326-.046.266.011-.052.022-.125.055-.246.089-.368.021-.075.2-.533.069-.231a4.047,4.047,0,0,1,.213-.408c.039-.066.322-.461.121-.2a4.1,4.1,0,0,1,.575-.588q.157-.128-.032.024c.073-.055.151-.105.228-.154a4.04,4.04,0,0,1,.4-.222q.188-.086-.039.012c.058-.022.116-.044.175-.064a3.953,3.953,0,0,1,.453-.127c.062-.013.124-.025.187-.036-.321.058-.007,0,.055,0,.106-.009.212-.011.318-.011h.922L28.216,14l2.921,3.286a1.23,1.23,0,0,0,1.739,0L35.773,14l-.869.36h.94c.132,0,.264.008.4.019s.128.013-.041-.007c.094.015.187.036.279.058a4.144,4.144,0,0,1,.449.136c.3.106-.237-.112.048.021.084.039.165.083.245.128a3.723,3.723,0,0,1,.386.248c-.262-.187.115.105.173.159a4.109,4.109,0,0,1,.312.334c.2.236-.15-.211.03.043.053.075.1.153.149.231a4.289,4.289,0,0,1,.213.409c-.138-.3.046.154.069.231a4.049,4.049,0,0,1,.106.461c-.058-.321,0-.007,0,.056.008.1.009.2.01.293a1.229,1.229,0,0,0,2.458,0,5.273,5.273,0,0,0-5.082-5.273,4.883,4.883,0,0,0-1.469.039,2.048,2.048,0,0,0-.944.772q-.5.567-1,1.135l-1.5,1.7h1.738l-1.6-1.8-1.011-1.137a1.539,1.539,0,0,0-1.231-.709,11.543,11.543,0,0,0-1.8.086,5.371,5.371,0,0,0-2.483,1.156A5.281,5.281,0,0,0,22.861,17.3v3.033a1.24,1.24,0,0,0,1.229,1.229H39.9a1.24,1.24,0,0,0,1.229-1.229V17.182a1.229,1.229,0,0,0-2.458,0Z"/><path d="M8.668,30.749a25.86,25.86,0,0,1,.7-2.58c.132-.4.277-.8.429-1.2.076-.2.156-.393.237-.588-.11.263.027-.061.041-.094.056-.129.114-.257.172-.385A25.127,25.127,0,0,1,12.9,21.412c.062-.084.125-.167.187-.25.21-.276-.151.193.063-.08.128-.164.259-.325.392-.486.286-.347.584-.685.888-1.017a25.43,25.43,0,0,1,1.856-1.815c.311-.276.631-.542.956-.8.081-.065.163-.129.245-.193-.222.173.053-.039.082-.06.193-.147.39-.289.588-.43a25.393,25.393,0,0,1,2.2-1.393c.152-.086.306-.169.459-.251a1.229,1.229,0,0,0-1.24-2.123A26.557,26.557,0,0,0,6.573,28.947c-.1.38-.192.763-.275,1.148a1.249,1.249,0,0,0,.858,1.512,1.235,1.235,0,0,0,1.512-.858Z"/><path d="M43.336,56.675q-.63.341-1.276.647c-.216.1-.435.2-.654.3-.009,0-.371.158-.147.064-.148.062-.3.121-.445.18a24.805,24.805,0,0,1-2.874.929c-.474.124-.951.229-1.431.324-.241.048-.484.091-.727.131-.121.021-.244.039-.366.058l-.245.036c.122-.017.108-.015-.042,0a25.3,25.3,0,0,1-6.262,0,1.115,1.115,0,0,1-.164-.022c-.122-.017-.244-.036-.366-.055-.242-.038-.484-.082-.726-.127-.52-.1-1.035-.216-1.548-.346A24.889,24.889,0,0,1,23.2,57.87c-.112-.043-.223-.088-.334-.133-.009,0-.372-.157-.147-.061-.22-.094-.437-.192-.654-.292-.468-.217-.928-.451-1.382-.7-.174-.094-.346-.192-.518-.289a1.229,1.229,0,1,0-1.241,2.122,26.332,26.332,0,0,0,24.273.974c.469-.218.93-.453,1.384-.7a1.229,1.229,0,0,0-1.24-2.122Z"/><path d="M42.551,14.317A25.922,25.922,0,0,1,44.823,15.6c.352.223.7.457,1.036.7.17.12.338.243.5.367l.248.188c-.226-.172.122.1.16.128a25.3,25.3,0,0,1,3.691,3.633c.133.16.262.323.391.486.215.272-.149-.2.062.08q.095.125.186.249c.269.362.526.733.775,1.109A25.175,25.175,0,0,1,53.2,24.79c.194.372.376.749.551,1.131.088.191.172.384.255.577-.113-.263.024.061.038.095.053.131.1.262.155.393a24.752,24.752,0,0,1,.824,2.522c.075.275.143.553.208.831a1.23,1.23,0,0,0,2.371-.654,26.548,26.548,0,0,0-12.518-16.8c-.423-.244-.854-.473-1.291-.692a1.25,1.25,0,0,0-1.681.441,1.235,1.235,0,0,0,.441,1.682Z"/><path d="M30.481,42.859a6.07,6.07,0,0,1-1.03-.574c-.039-.027-.3-.229-.063-.044-.077-.061-.15-.126-.223-.191a5.37,5.37,0,0,1-.478-.488c-.031-.035-.235-.292-.054-.056-.06-.077-.115-.158-.171-.239a5.717,5.717,0,0,1-.3-.505c-.047-.087-.09-.176-.132-.265-.143-.3.091.238-.03-.072a5.584,5.584,0,0,1-.208-.67c-.025-.1-.044-.2-.063-.3-.01-.049-.053-.387-.016-.078a5.66,5.66,0,0,1-.035-.624,5.736,5.736,0,0,1,.031-.586c.031-.327-.045.268.008-.054.021-.125.049-.249.078-.372a5.34,5.34,0,0,1,.162-.541c.018-.052.137-.347.013-.053.036-.086.076-.17.117-.253.08-.166.173-.327.269-.484.048-.079.1-.155.152-.231.035-.05.07-.1.107-.149-.1.127-.107.138-.023.032a5.705,5.705,0,0,1,.777-.777c.24-.2-.21.153.042-.031.075-.055.151-.1.228-.156a5.552,5.552,0,0,1,.562-.318c.083-.042.168-.08.253-.117-.291.128,0,.006.053-.013a5.34,5.34,0,0,1,.541-.162c.092-.023.185-.042.278-.061.057-.011.379-.057.052-.015a5.753,5.753,0,0,1,.682-.041c.2,0,.391.012.586.03.327.032-.268-.044.054.009.094.016.187.036.28.056.184.041.365.095.544.153.089.029.176.063.264.1-.308-.118.073.037.131.065.166.08.326.173.484.269.078.048.154.1.23.152.046.031.294.22.046.027a5.527,5.527,0,0,1,.848.834c.2.24-.152-.21.032.042.054.075.105.151.155.228a5.313,5.313,0,0,1,.277.479c.043.082.082.166.121.251.133.287-.095-.246.019.05a5.76,5.76,0,0,1,.193.628c.024.093.043.186.061.279.012.057.058.379.015.052.025.193.035.388.041.583a5.793,5.793,0,0,1-.023.618c-.029.344.044-.258-.009.08-.021.133-.05.265-.08.4-.046.2-.107.386-.172.575-.016.045-.143.352-.024.074-.039.091-.082.179-.126.267a5.621,5.621,0,0,1-.293.511c-.053.082-.109.162-.166.241-.082.111-.077.105.015-.016-.041.051-.083.1-.125.15a5.751,5.751,0,0,1-.4.422c-.071.067-.145.131-.218.194-.037.032-.3.228-.058.05a5.622,5.622,0,0,1-1.1.632,1.231,1.231,0,0,0-.441,1.682,1.257,1.257,0,0,0,1.681.441,6.84,6.84,0,1,0-5.65.008,1.26,1.26,0,0,0,1.682-.441,1.231,1.231,0,0,0-.442-1.682Z"/><path d="M30.828,27.259v2.316a1.229,1.229,0,1,0,2.458,0V27.259a1.229,1.229,0,1,0-2.458,0Z"/><path d="M29.95,48.263h4.213a1.229,1.229,0,1,0,0-2.458H29.95a1.229,1.229,0,1,0,0,2.458Z"/><path d="M20.282,40.263H22.6a1.23,1.23,0,0,0,0-2.459H20.282a1.23,1.23,0,0,0,0,2.459Z"/><path d="M41.515,40.263h2.316a1.23,1.23,0,0,0,0-2.459H41.515a1.23,1.23,0,0,0,0,2.459Z"/><path d="M22.862,31.577,24.5,33.214a1.229,1.229,0,0,0,1.739-1.738L24.6,29.839a1.229,1.229,0,0,0-1.738,1.738Z"/><path d="M37.876,46.591l1.637,1.637a1.229,1.229,0,1,0,1.739-1.738l-1.638-1.637a1.229,1.229,0,0,0-1.738,1.738Z"/><path d="M39.514,29.839l-1.638,1.637a1.229,1.229,0,0,0,1.738,1.738l1.638-1.637a1.229,1.229,0,1,0-1.738-1.738Z"/><path d="M24.5,44.853,22.862,46.49A1.229,1.229,0,0,0,24.6,48.228l1.638-1.637A1.229,1.229,0,0,0,24.5,44.853Z"/><path d="M30.853,51.452H33.26a1.23,1.23,0,0,0,0-2.459H30.853a1.23,1.23,0,0,0,0,2.459Z"/></svg>