<?xml version="1.0" encoding="utf-8"?>
<!-- Generator: Adobe Illustrator 23.1.1, SVG Export Plug-In . SVG Version: 6.00 Build 0)  -->
<svg version="1.1" id="Layer_1" xmlns="http://www.w3.org/2000/svg" xmlns:xlink="http://www.w3.org/1999/xlink" x="0px" y="0px"
	 width="69.694px" height="69.69px" viewBox="0 0 69.694 69.69" style="enable-background:new 0 0 69.694 69.69;"
	 xml:space="preserve">
<style type="text/css">
	.st0{fill:#6E717D;}
	.st1{fill-rule:evenodd;clip-rule:evenodd;fill:#1082C1;}
</style>
<path class="st0" d="M69.189,57.472C61.616,46.306,52.435,37.686,42.093,28.43c8.256-6.332,23.728-16.404,23.887-16.507
	c0.373-0.244,0.615-0.629,0.664-1.069c0.067-0.629,0.636-6.236-0.018-9.654c-0.095-0.491-0.439-0.898-0.922-1.09
	c-0.472-0.184-1.01-0.137-1.436,0.131C52.621,7.566,44.204,13.616,34.366,21.743c-1.309-1.088-2.603-2.143-3.857-3.146
	C23.525,13.023,7.428,0.752,7.317,0.669C6.87,0.334,6.271,0.262,5.752,0.479C5.218,0.702,4.866,1.184,4.834,1.737
	c-0.573,9.496-0.19,9.723,0.649,10.219c4.678,2.77,9.956,7.232,14.611,11.168l1.353,1.143c1.738,1.464,3.529,2.976,5.339,4.434
	c-1.985,1.941-4.02,4.007-6.205,6.302c-1.411,1.483-2.811,2.924-4.192,4.346c-5.693,5.862-11.07,11.398-15.867,18.325
	c-0.281,0.405-0.865,1.249-0.251,10.149c0.04,0.601,0.474,1.125,1.078,1.306c0.146,0.043,0.3,0.065,0.456,0.065
	c0.463,0,0.896-0.197,1.19-0.54c0.123-0.143,12.491-14.585,19.334-21.874c4.266-4.543,8.211-8.44,12.051-11.896
	c12.577,10.842,32.136,33.337,32.333,33.564c0.399,0.459,1.046,0.639,1.644,0.464c0.611-0.183,1.033-0.695,1.075-1.303
	C69.979,59.654,69.556,58.014,69.189,57.472z"/>
</svg>
