<?xml version="1.0" ?><svg id="Layer_1" style="enable-background:new 0 0 128 128;" version="1.1" viewBox="0 0 128 128" xml:space="preserve" xmlns="http://www.w3.org/2000/svg" xmlns:xlink="http://www.w3.org/1999/xlink"><path d="M82.187,56.304c3.563-3.247,5.815-7.91,5.815-13.11c0-9.804-7.946-17.75-17.75-17.75c-9.804,0-17.75,7.946-17.75,17.75  c0,5.521,2.521,10.451,6.474,13.707v-5.769c-1.587-2.248-2.529-4.983-2.529-7.938c0-7.613,6.192-13.806,13.806-13.806  c7.611,0,13.806,6.192,13.806,13.806c0,2.517-0.689,4.872-1.87,6.906V56.304z"/><path d="M70,8H54c-1.106,0-2,0.896-2,2s0.894,2,2,2h16c1.103,0,2-0.896,2-2S71.103,8,70,8z"/><path d="M32.105,124c-2.264,0-4.105-1.794-4.105-4v-8h32.359c-0.506-1.245-1.133-2.573-1.883-4H28V20h68v44.477  c1.42,0.113,2.766,0.482,4,1.058V8c0-4.418-3.631-8-8.107-8H32.105C27.629,0,24,3.582,24,8v112c0,4.418,3.629,8,8.105,8h28.74  c-0.803-1.165-1.387-2.521-1.664-4H32.105z M28,8c0-2.206,1.842-4,4.105-4h59.787C94.158,4,96,5.794,96,8v8H28V8z"/><path d="M50,118c0,1.104,0.894,2,2,2h7.185c0.274-1.46,0.838-2.823,1.649-4H52C50.894,116,50,116.896,50,118z"/><path d="M103,88.747c0-3.844-0.168-7.68-0.168-11.522c0-4.22-3.49-7.65-7.777-7.65c-0.595,0-1.189,0.065-1.771,0.201  c-1.425-2.058-3.812-3.344-6.425-3.344c-0.627,0-1.237,0.074-1.836,0.217c-1.31-2.466-3.92-4.093-6.891-4.093  c-0.014,0-0.029,0-0.048,0l-0.002-18.97l-0.002-0.11C77.834,39.216,74.494,36,70.31,36c-4.287,0-7.776,3.431-7.776,7.65v26.025  c-1.491-1.954-3.237-3.245-5.229-3.862c-2.924-0.908-7.065,0.089-8.983,2.442c-2.757,3.391-0.645,8.215,1.302,11.477l0.16,0.267  c4.675,7.866,6.721,16.93,11.27,24.868c2.701,4.724,4.211,8.495,4.766,11.993c-1.688,0.971-2.85,2.959-2.85,5.253  c0,3.248,2.312,5.887,5.158,5.887h25.71c2.844,0,5.164-2.639,5.164-5.887c0-2.227-1.095-4.173-2.707-5.171  c-0.241-0.153,4.681-11.974,5.035-13.195C102.766,98.871,103.002,93.796,103,88.747z M93.837,124.075h-25.71  c-0.469,0-1.156-0.762-1.156-1.962c0-1.196,0.688-1.959,1.156-1.959h25.71c0.475,0.002,1.162,0.765,1.162,1.959  C94.999,123.313,94.31,124.075,93.837,124.075z M95.04,109.617c-0.91,1.725-2.092,4.835-2.739,6.611l-22.538-0.026  c-0.823-5.075-3.18-9.696-5.217-13.257c-2.171-3.779-7.449-17.222-8.663-19.829c-1.176-2.55-2.692-4.903-3.959-7.405  c-0.641-1.258-1.247-2.755-0.829-4.169c0.568-1.956,3.244-2.539,5.004-1.992c2.695,0.839,4.455,4.056,5.455,6.608  c0.423,1.071,1.533,2.485,2.802,2.525c1.77,0.06,2.207-2.188,2.181-3.513V43.65c0-2.056,1.693-3.726,3.774-3.726  c2.044,0,3.618,1.563,3.771,3.726l0.003,24.089c1.528-0.573,3.252-1.607,4.956-1.17c1.407,0.36,2.572,1.604,2.812,3.008l0.496,2.883  l2.539-1.547c2.031-1.243,4.76-0.257,5.539,1.944l0.769,2.188c1.218-0.65,2.409-1.552,3.859-1.552c4.858,0,3.795,6.554,3.857,9.581  C99.111,92.165,99.319,101.567,95.04,109.617z"/></svg>