<svg id="Layer_1" data-name="Layer 1" xmlns="http://www.w3.org/2000/svg" viewBox="0 0 64 61.287"><title>Icon</title><path d="M59.3,32.931A16.48,16.48,0,0,1,64,44.525a16.659,16.659,0,0,1-6.418,13.146A8.59,8.59,0,0,0,59.1,59.134a1.109,1.109,0,0,1-.521,1.995,19.26,19.26,0,0,1-2.339.155,11.243,11.243,0,0,1-4.334-.765,16.28,16.28,0,0,1-4.389.6A16.637,16.637,0,0,1,31.424,48.05H1.153A1.109,1.109,0,0,1,.044,46.941L0,1.108A1.168,1.168,0,0,1,.321.321,1.147,1.147,0,0,1,1.108,0H58.17a1.108,1.108,0,0,1,1.108,1.108Zm2.483,11.594a14.262,14.262,0,0,0-4.367-10.341,13.937,13.937,0,0,0-2.816-2.14c-.354-.2-.709-.388-1.086-.565a1.332,1.332,0,0,0-.188-.078c-.178-.088-.355-.166-.532-.243-.377-.145-.765-.278-1.153-.388-.177-.056-.355-.111-.543-.156-.277-.066-.554-.133-.842-.188-.344-.067-.7-.122-1.042-.155-.222-.033-.455-.056-.677-.067a13.892,13.892,0,0,0-6.317.976,14.223,14.223,0,0,0-2.561,1.341c-.011.011-.022.011-.033.022a14.488,14.488,0,0,0-6.362,11.982,14.008,14.008,0,0,0,.177,2.25A14.391,14.391,0,0,0,47.518,58.9a14.132,14.132,0,0,0,4.145-.621,1.061,1.061,0,0,1,.322-.044,1,1,0,0,1,.476.111,8.589,8.589,0,0,0,3.392.709,7.729,7.729,0,0,1-.765-1.075,1.109,1.109,0,0,1,.333-1.485A14.421,14.421,0,0,0,61.783,44.525Zm-4.7-13.512L57.061,6.728,2.217,6.861l.044,38.972H31.1c-.033-.432-.055-.876-.055-1.308a16.592,16.592,0,0,1,1.141-6.063H4.744a1.108,1.108,0,0,1-1.108-1.108V9.011A1.108,1.108,0,0,1,4.744,7.9H39.016a1.109,1.109,0,0,1,1.109,1.108V29.694a4.478,4.478,0,0,1,.565-.277V26.258A1.108,1.108,0,0,1,41.8,25.15H55.144a1.108,1.108,0,0,1,1.108,1.108v4.2a.629.629,0,0,1,.144.089c.155.1.31.21.466.321A1.29,1.29,0,0,1,57.083,31.013Zm-.022-26.5V2.217H2.217V4.644ZM54.035,29.284V27.367H42.907v1.219c.2-.055.41-.111.609-.155a.039.039,0,0,1,.034-.011.1.1,0,0,1,.055-.011c.244-.067.5-.111.754-.167a15.371,15.371,0,0,1,1.585-.221,17.394,17.394,0,0,1,2.4-.045c.166.011.333.023.51.045a3,3,0,0,1,.543.055,9.248,9.248,0,0,1,1.23.177c.023,0,.034.012.056.012s.044.011.077.011c.067.011.133.033.211.044l.133.033c.244.056.488.111.732.178.022,0,.033.011.055.011a.6.6,0,0,1,.111.033c.166.044.332.1.488.144.022.011.055.011.077.033.144.045.288.089.421.133.266.1.521.189.776.3A2.5,2.5,0,0,1,54.035,29.284ZM37.908,31.047V10.12H5.852V36.245H33.241l.067-.1a3.706,3.706,0,0,1,.233-.4,6.69,6.69,0,0,1,.388-.587,15.424,15.424,0,0,1,2.128-2.538,8.976,8.976,0,0,1,.676-.632c.155-.133.31-.277.476-.4.2-.166.411-.333.621-.488A.423.423,0,0,1,37.908,31.047Z"/><path d="M56.252,14.177v8.834a1.108,1.108,0,0,1-1.108,1.108H41.8a1.108,1.108,0,0,1-1.108-1.108V14.177A1.108,1.108,0,0,1,41.8,13.068H55.144A1.108,1.108,0,0,1,56.252,14.177ZM54.035,21.9V15.285H42.907V21.9Z"/><path d="M50.632,28.253a9.248,9.248,0,0,0-1.23-.177,3,3,0,0,0-.543-.055c-.177-.022-.344-.034-.51-.045a17.394,17.394,0,0,0-2.4.045,12.356,12.356,0,0,1,1.574-.089A15.438,15.438,0,0,1,50.632,28.253Z"/><path d="M49.347,9.5a1.109,1.109,0,0,1,0,2.217H41.8a1.109,1.109,0,0,1,0-2.217Z"/><path d="M48.992,35.514v13.3a1.109,1.109,0,0,1-2.217,0v-13.3a1.109,1.109,0,1,1,2.217,0Z"/><path d="M47.684,51.829a1.455,1.455,0,1,1-.016,0Z"/><path d="M26.17,42.3a1.109,1.109,0,0,1,0,2.217H4.733a1.109,1.109,0,0,1,0-2.217Z"/><path d="M26.646,21.868a1.507,1.507,0,0,1,.632,1.249,1.473,1.473,0,0,1-.647,1.218l-6.168,4.243a1.488,1.488,0,0,1-.858.271,1.435,1.435,0,0,1-.692-.181,1.493,1.493,0,0,1-.812-1.324V18.678a1.486,1.486,0,0,1,.827-1.339,1.5,1.5,0,0,1,1.565.106Zm-6.375,4.294,4.561-3.09-4.561-3.151Z"/><path d="M12.281,39.6a1.108,1.108,0,1,1,0,2.216H4.733a1.108,1.108,0,0,1,0-2.216Z"/><path d="M7.4,2.671a.582.582,0,1,1-.576.588V3.248A.578.578,0,0,1,7.4,2.671Z"/><path d="M5.309,2.671a.582.582,0,1,1-.565.6V3.248A.58.58,0,0,1,5.309,2.671Z"/><path d="M3.225,2.671a.582.582,0,1,1-.565.6V3.248A.58.58,0,0,1,3.225,2.671Z"/></svg>