<svg id="Layer_1" data-name="Layer 1" xmlns="http://www.w3.org/2000/svg" viewBox="0 0 64 49.519"><title>Icon</title><path d="M63.459,41.819H60.452V4.187a.541.541,0,0,0-.541-.541h-23.4a.54.54,0,0,0-.54.541V5.625a.54.54,0,0,0,.54.541H57.931V41.819H52.778V19.149a.541.541,0,0,0-.54-.541H50.8a.541.541,0,0,0-.541.541v22.67h-4V27.972a.539.539,0,0,0-.54-.54H44.277a.54.54,0,0,0-.541.54V41.819h-4V24.52a.541.541,0,0,0-.541-.541H37.755a.541.541,0,0,0-.541.541v17.3h-4V31.138a.541.541,0,0,0-.541-.541H31.233a.541.541,0,0,0-.541.541V41.819h-4v-12.5a.541.541,0,0,0-.541-.541H24.71a.541.541,0,0,0-.541.541V41.723h-4V35.454a.541.541,0,0,0-.541-.54H18.188a.541.541,0,0,0-.541.54v6.269h-4V38.044a.541.541,0,0,0-.541-.541H11.666a.541.541,0,0,0-.541.541v3.679H5.878V6.166H15.12a.541.541,0,0,0,.54-.541V4.187a.541.541,0,0,0-.54-.541H3.9a.541.541,0,0,0-.541.541V41.819H.541A.541.541,0,0,0,0,42.36v2.877a.55.55,0,0,0,.1.316l2.686,3.741a.541.541,0,0,0,.439.225H60.774a.541.541,0,0,0,.439-.225L63.9,45.553a.55.55,0,0,0,.1-.316V42.36A.541.541,0,0,0,63.459,41.819Zm-2.075,2.52v.246L59.729,46.9H4.176L2.52,44.585v-.246Z"/><path d="M26.342,11.57l.959.96a.541.541,0,0,0,.765,0l1.667-1.667V15.12a.541.541,0,0,0,.541.541h1.439a.541.541,0,0,0,.541-.541V10.864l1.665,1.666a.541.541,0,0,0,.746.018l1.055-.96A.537.537,0,0,0,35.9,11.2a.545.545,0,0,0-.154-.394L31.427,6.4a.557.557,0,0,0-.773,0L26.338,10.81A.541.541,0,0,0,26.342,11.57Z"/><rect x="29.733" y="20.771" width="2.52" height="2.52" rx="0.541" ry="0.541"/><rect x="29.733" y="17.004" width="2.52" height="2.52" rx="0.541" ry="0.541"/><path d="M18.285,6.3a.541.541,0,0,0,.765,0l1.667-1.666V8.886a.541.541,0,0,0,.541.541H22.7a.541.541,0,0,0,.541-.541V4.629L24.9,6.3a.541.541,0,0,0,.765,0L26.724,5.24a.542.542,0,0,0,0-.765L22.407.159a.538.538,0,0,0-.76,0L17.234,4.471a.542.542,0,0,0,0,.769Z"/><rect x="20.717" y="14.537" width="2.521" height="2.52" rx="0.541" ry="0.541"/><rect x="20.717" y="10.77" width="2.521" height="2.52" rx="0.541" ry="0.541"/></svg>