<svg id="Layer_1" data-name="Layer 1" xmlns="http://www.w3.org/2000/svg" viewBox="0 0 60.999 61"><defs><style>.cls-1{fill:#231f20;}</style></defs><title>Icon</title><path class="cls-1" d="M24.193,40.826a1.5,1.5,0,0,1-1.06-.44l-6.3-6.3A1.5,1.5,0,1,1,18.95,31.96l5.279,5.281L42.083,20.577a1.5,1.5,0,0,1,2.047,2.194L25.217,40.422A1.494,1.494,0,0,1,24.193,40.826Z"/><path class="cls-1" d="M30.5,61a6.543,6.543,0,0,1-5.479-2.969A6.538,6.538,0,0,1,14.9,53.837a6.531,6.531,0,0,1-7.743-7.745,6.532,6.532,0,0,1-4.19-10.117,6.537,6.537,0,0,1,0-10.951A6.536,6.536,0,0,1,7.155,14.908,6.535,6.535,0,0,1,14.9,7.162a6.535,6.535,0,0,1,10.12-4.191,6.533,6.533,0,0,1,10.952,0A6.537,6.537,0,0,1,46.09,7.162a6.534,6.534,0,0,1,7.744,7.745,6.525,6.525,0,0,1,4.191,10.116,6.531,6.531,0,0,1,0,10.954A6.53,6.53,0,0,1,53.834,46.1a6.534,6.534,0,0,1-7.746,7.743A6.536,6.536,0,0,1,35.97,58.033,6.53,6.53,0,0,1,30.5,61Zm-4.954-7.117a1.529,1.529,0,0,1,.292.029,1.5,1.5,0,0,1,1.183,1.2,3.534,3.534,0,0,0,6.949,0,1.5,1.5,0,0,1,2.732-.543,3.535,3.535,0,0,0,6.422-2.663A1.5,1.5,0,0,1,45.44,50.36a3.534,3.534,0,0,0,4.913-4.915A1.5,1.5,0,0,1,51.9,43.129a3.533,3.533,0,0,0,2.659-6.422,1.5,1.5,0,0,1,.545-2.732,3.532,3.532,0,0,0,0-6.947A1.5,1.5,0,0,1,54.56,24.3a3.533,3.533,0,0,0-2.66-6.422,1.5,1.5,0,0,1-1.546-2.316,3.535,3.535,0,0,0-4.915-4.915A1.5,1.5,0,0,1,43.123,9.1,3.535,3.535,0,0,0,36.7,6.435a1.5,1.5,0,0,1-2.732-.543,3.533,3.533,0,0,0-6.949,0,1.5,1.5,0,0,1-2.733.543A3.535,3.535,0,0,0,17.865,9.1a1.5,1.5,0,0,1-2.316,1.547,3.534,3.534,0,0,0-4.913,4.915,1.5,1.5,0,0,1-1.547,2.316,3.534,3.534,0,0,0-2.66,6.419,1.5,1.5,0,0,1-.544,2.732,3.535,3.535,0,0,0,0,6.949,1.5,1.5,0,0,1,.546,2.732,3.534,3.534,0,0,0,2.66,6.421,1.5,1.5,0,0,1,1.547,2.317,3.534,3.534,0,0,0,4.913,4.916,1.5,1.5,0,0,1,2.315,1.547,3.536,3.536,0,0,0,6.422,2.661A1.5,1.5,0,0,1,25.545,53.883Z"/></svg>