<svg id="Layer_1" data-name="Layer 1" xmlns="http://www.w3.org/2000/svg" viewBox="0 0 59 61"><defs><style>.cls-1{stroke:#000;stroke-linecap:round;stroke-linejoin:round;stroke-width:0.5px;}</style></defs><title>Icon</title><g id="Layer_2" data-name="Layer 2"><path class="cls-1" d="M51.55,60.75a2.878,2.878,0,0,1-2.1-.9l-12-12a2.9,2.9,0,0,1,0-4.2l4.2-4.2a2.9,2.9,0,0,1,4.2,0l12,12a2.9,2.9,0,0,1,0,4.2l-4.2,4.2A2.878,2.878,0,0,1,51.55,60.75Zm-7.8-20.3a.908.908,0,0,0-.7.3l-4.2,4.2a.967.967,0,0,0,0,1.4l12,12a.967.967,0,0,0,1.4,0l4.2-4.2a.967.967,0,0,0,0-1.4l-12-12A.908.908,0,0,0,43.75,40.45Z"/><polygon class="cls-1" points="31.55 36.75 29.55 37.75 29.55 21.75 40.25 21.75 22.55 3.25 4.85 21.75 15.55 21.75 15.55 37.75 13.55 36.75 13.55 23.75 0.25 23.75 22.55 0.25 44.85 23.75 31.55 23.75 31.55 36.75"/><path class="cls-1" d="M27.85,7.35a18,18,0,0,1,12.1,12.7l2.5,2.6a20.076,20.076,0,0,0-17-17.9Z"/><path class="cls-1" d="M36.55,24.55a14,14,0,0,1-28,0c0-.6.1-1.2.1-1.8h-2a10.869,10.869,0,0,0-.1,1.8,16,16,0,0,0,32,0,10.869,10.869,0,0,0-.1-1.8h-2C36.45,23.35,36.55,23.95,36.55,24.55Z"/><path class="cls-1" d="M38.65,36.35a20.107,20.107,0,0,0,3.9-11.8,10.869,10.869,0,0,0-.1-1.8h-2a10.869,10.869,0,0,1,.1,1.8,17.722,17.722,0,0,1-4,11.3l-.6.7,4.3,4.3-1.4,1.4-4.3-4.3-.7.6a17.722,17.722,0,0,1-11.3,4,18.053,18.053,0,0,1-18-18,10.869,10.869,0,0,1,.1-1.8h-2a10.869,10.869,0,0,0-.1,1.8,20.059,20.059,0,0,0,20,20,20.407,20.407,0,0,0,11.9-3.9l4.4,4.4,4.2-4.2Z"/><path class="cls-1" d="M5.15,20.05a18.011,18.011,0,0,1,12.1-12.7l2.4-2.6a20.076,20.076,0,0,0-17,17.9Z"/><rect class="cls-1" x="29.55" y="58.75" width="2" height="2"/><rect class="cls-1" x="13.55" y="58.75" width="2" height="2"/><rect class="cls-1" x="29.55" y="41.75" width="2" height="9"/><rect class="cls-1" x="29.55" y="52.75" width="2" height="4"/><rect class="cls-1" x="13.55" y="41.75" width="2" height="9"/><rect class="cls-1" x="13.55" y="52.75" width="2" height="4"/></g></svg>